<svg width="144" height="24" viewBox="0 0 144 24" fill="none" xmlns="http://www.w3.org/2000/svg">
<path d="M2.245 19.4401C1.471 19.4401 0.744996 19.4401 9.99632e-07 19.4401C-8.77299e-06 18.8425 5.63276e-05 17.7841 5.63276e-05 17.0101V3.05112C0.198056 3.01512 0.513056 2.97012 0.945056 2.91612C1.37706 2.84412 1.79106 2.80812 2.18706 2.80812C2.60106 2.80812 2.96106 2.84412 3.26706 2.91612C3.59106 2.97012 3.86106 3.07812 4.07706 3.24012C4.29306 3.40212 4.45506 3.62712 4.56306 3.91512C4.67106 4.20312 4.72506 4.58112 4.72506 5.04912V15.7141H10.9081C11.0341 15.9121 11.1511 16.1821 11.2591 16.5241C11.3671 16.8481 11.4211 17.1901 11.4211 17.5501C11.4211 18.2701 11.2681 18.7831 10.9621 19.0891C10.6561 19.3771 10.249 19.4401 9.745 19.4401H2.245Z" fill="black"/>
<path d="M13.3838 2.67312C13.3838 1.98912 13.6088 1.41312 14.0588 0.945121C14.5268 0.477121 15.1388 0.243122 15.8948 0.243122C16.6508 0.243122 17.2538 0.477121 17.7038 0.945121C18.1718 1.41312 18.4058 1.98912 18.4058 2.67312C18.4058 3.35712 18.1718 3.93312 17.7038 4.40112C17.2538 4.86912 16.6508 5.10312 15.8948 5.10312C15.1388 5.10312 14.5268 4.86912 14.0588 4.40112C13.6088 3.93312 13.3838 3.35712 13.3838 2.67312ZM18.1898 19.4401C17.745 19.4401 17.6551 19.4401 17.245 19.4401C16.745 19.4401 16.641 19.4401 16.245 19.4401C15.849 19.4401 15.245 19.4401 14.745 19.4401C14.245 19.4401 13.745 19.4401 13.5998 19.4401C13.5998 19.0536 13.5998 18.9401 13.5998 18.6256C13.5998 17.9778 13.5998 17.9461 13.5998 17.4961V6.50712C13.7978 6.47112 14.0858 6.42612 14.4638 6.37212C14.8598 6.30012 15.2558 6.26412 15.6518 6.26412C16.0478 6.26412 16.3988 6.29112 16.7048 6.34512C17.0288 6.39912 17.2988 6.50712 17.5148 6.66912C17.7308 6.83112 17.8928 7.05612 18.0008 7.34412C18.1268 7.61412 18.1898 7.97412 18.1898 8.42412V19.4401Z" fill="black"/>
<path d="M21.1659 6.31812C21.1659 5.40012 21.3189 4.61712 21.6249 3.96912C21.9489 3.30312 22.3809 2.76312 22.9209 2.34912C23.4609 1.91712 24.0909 1.60212 24.8109 1.40412C25.5489 1.20612 26.3319 1.10712 27.1599 1.10712C28.4919 1.10712 29.4729 1.28712 30.1029 1.64712C30.7329 1.98912 31.0479 2.58312 31.0479 3.42912C31.0479 3.78912 30.9669 4.11312 30.8049 4.40112C30.6609 4.68912 30.4989 4.90512 30.3189 5.04912C29.9769 4.95912 29.6169 4.88712 29.2389 4.83312C28.8789 4.76112 28.4559 4.72512 27.9699 4.72512C27.1959 4.72512 26.5929 4.86012 26.1609 5.13012C25.7289 5.38212 25.5129 5.83212 25.5129 6.48012V7.34412H29.9409C30.0489 7.54212 30.1479 7.79412 30.2379 8.10012C30.3459 8.38812 30.3999 8.71212 30.3999 9.07212C30.3999 9.70212 30.2559 10.1611 29.9679 10.4491C29.6979 10.7191 29.3289 10.8541 28.8609 10.8541H25.7559V19.4401C25.745 19.4401 25.1366 19.4401 24.745 19.4401C24.245 19.4401 24.159 19.4401 23.745 19.4401C23.349 19.4401 23.0682 19.4401 22.745 19.4401C22.245 19.4401 21.245 19.4401 21.1659 19.4401C21.1659 19.0868 21.1659 18.912 21.1659 18.6279C21.1659 18.4401 21.1659 17.9461 21.1659 17.4961V6.31812Z" fill="black"/>
<path d="M46.8174 2.67312C46.8174 1.98912 47.0424 1.41312 47.4924 0.945121C47.9604 0.477121 48.5724 0.243122 49.3284 0.243122C50.0844 0.243122 50.6874 0.477121 51.1374 0.945121C51.6054 1.41312 51.8394 1.98912 51.8394 2.67312C51.8394 3.35712 51.6054 3.93312 51.1374 4.40112C50.6874 4.86912 50.0844 5.10312 49.3284 5.10312C48.5724 5.10312 47.9604 4.86912 47.4924 4.40112C47.0424 3.93312 46.8174 3.35712 46.8174 2.67312ZM51.6234 19.4401C51.245 19.4401 51.245 19.4401 50.745 19.4401C50.245 19.4401 50.141 19.4401 49.745 19.4401C49.349 19.4401 49.0896 19.4401 48.745 19.4401C48.245 19.4401 48.245 19.4401 47.745 19.4401C47.745 19.4401 47.245 19.4401 47.0334 19.4523C47.0334 19.1489 47.0334 17.9461 47.0334 17.4961V6.50712C47.2314 6.47112 47.5194 6.42612 47.8974 6.37212C48.2934 6.30012 48.6894 6.26412 49.0854 6.26412C49.4814 6.26412 49.8324 6.29112 50.1384 6.34512C50.4624 6.39912 50.7324 6.50712 50.9484 6.66912C51.1644 6.83112 51.3264 7.05612 51.4344 7.34412C51.5604 7.61412 51.6234 7.97412 51.6234 8.42412V19.4401Z" fill="black"/>
<path d="M62.8615 11.0431C62.8615 10.4851 62.6995 10.0801 62.3755 9.82812C62.0695 9.55812 61.6465 9.42312 61.1065 9.42312C60.7465 9.42312 60.3865 9.46812 60.0265 9.55812C59.6845 9.64812 59.3875 9.78312 59.1355 9.96312V19.4401C58.745 19.4401 58.745 19.4401 58.2715 19.4401C57.745 19.4401 57.6325 19.4401 57.2185 19.4401C56.8225 19.4401 56.245 19.4401 56.0575 19.4401C55.745 19.4401 55.745 19.4401 55.245 19.4401C54.745 19.4401 54.745 19.4401 54.5455 19.4401C54.5455 19.0564 54.5455 17.8651 54.5455 17.4151V9.31512C54.5455 8.82912 54.6445 8.43312 54.8425 8.12712C55.0585 7.82112 55.3465 7.54212 55.7065 7.29012C56.3185 6.85812 57.0835 6.50712 58.0015 6.23712C58.9375 5.96712 59.9725 5.83212 61.1065 5.83212C63.1405 5.83212 64.7065 6.28212 65.8045 7.18212C66.9025 8.06412 67.4515 9.29712 67.4515 10.8811V19.4401C67.245 19.4401 67.245 19.4401 66.745 19.4401C66.245 19.4401 65.659 19.4401 65.245 19.4401C64.849 19.4401 64.745 19.4401 64.245 19.4401C63.745 19.4401 63.745 19.4401 63.745 19.4401C63.745 19.4401 63.245 19.4401 62.8615 19.4401C62.8615 19.1701 62.8615 17.8651 62.8615 17.4151V11.0431Z" fill="black"/>
<path d="M76.3078 5.91312C77.3878 5.91312 78.3867 6.05712 79.3047 6.34512C80.2407 6.61512 81.0417 7.03812 81.7077 7.61412C82.3737 8.19012 82.8957 8.91912 83.2738 9.80112C83.6517 10.6651 83.8408 11.7001 83.8408 12.9061C83.8408 14.0581 83.6788 15.0661 83.3548 15.9301C83.0308 16.7941 82.5718 17.5231 81.9778 18.1171C81.3838 18.6931 80.6637 19.1251 79.8177 19.4131C78.9897 19.7011 78.0628 19.8451 77.0368 19.8451C76.2628 19.8451 75.5428 19.7281 74.8768 19.4941V23.4401C74.745 23.4401 74.245 23.4401 74.0127 23.4401C73.745 23.4401 73.2118 23.4401 72.7978 23.4401C72.4018 23.4401 72.245 23.4401 71.7178 23.4401C71.245 23.4401 71.245 23.4401 70.9348 23.4401C70.7668 23.4401 70.745 23.4401 70.2868 23.4401C70.2868 22.9401 70.2868 22.5361 70.2868 22.0861V9.12612C70.2868 8.64012 70.3857 8.24412 70.5837 7.93812C70.7997 7.63212 71.0878 7.35312 71.4478 7.10112C72.0058 6.74112 72.6987 6.45312 73.5267 6.23712C74.3547 6.02112 75.2818 5.91312 76.3078 5.91312ZM76.3618 16.2271C78.2158 16.2271 79.1428 15.1201 79.1428 12.9061C79.1428 11.7541 78.9088 10.8991 78.4408 10.3411C77.9908 9.78312 77.3337 9.50412 76.4697 9.50412C76.1277 9.50412 75.8218 9.54912 75.5518 9.63912C75.2818 9.71112 75.0478 9.80112 74.8498 9.90912V15.8491C75.0658 15.9571 75.2998 16.0471 75.5518 16.1191C75.8038 16.1911 76.0738 16.2271 76.3618 16.2271Z" fill="black"/>
<path d="M86.0807 6.07514C86.2607 6.02114 86.5397 5.96714 86.9177 5.91314C87.3137 5.85914 87.7187 5.83214 88.1327 5.83214C88.5287 5.83214 88.8797 5.85914 89.1857 5.91314C89.5097 5.96714 89.7797 6.07514 89.9957 6.23714C90.2117 6.39914 90.3737 6.62414 90.4817 6.91214C90.6077 7.18214 90.6707 7.54214 90.6707 7.99214V13.7971C90.6707 14.5351 90.8507 15.0661 91.2107 15.3901C91.5707 15.6961 92.0927 15.8491 92.7767 15.8491C93.1907 15.8491 93.5237 15.8131 93.7757 15.7411C94.0457 15.6691 94.2527 15.5971 94.3967 15.5251V6.07514C94.5767 6.02114 94.8557 5.96714 95.2337 5.91314C95.6297 5.85914 96.0347 5.83214 96.4487 5.83214C96.8447 5.83214 97.1957 5.85914 97.5017 5.91314C97.8257 5.96714 98.0957 6.07514 98.3117 6.23714C98.5277 6.39914 98.6897 6.62414 98.7977 6.91214C98.9237 7.18214 98.9867 7.54214 98.9867 7.99214V16.2001C98.9867 17.1001 98.6087 17.7751 97.8527 18.2251C97.2227 18.6211 96.4667 18.9181 95.5847 19.1161C94.7207 19.3321 93.7757 19.4401 92.7497 19.4401C91.7777 19.4401 90.8777 19.3321 90.0497 19.1161C89.2397 18.9001 88.5377 18.5671 87.9437 18.1171C87.3497 17.6671 86.8907 17.0911 86.5667 16.3891C86.2427 15.6691 86.0807 14.8051 86.0807 13.7971V6.07514Z" fill="black"/>
<path d="M101.85 1.43112C102.03 1.37712 102.318 1.32312 102.714 1.26912C103.11 1.19712 103.515 1.16112 103.929 1.16112C104.325 1.16112 104.676 1.18812 104.982 1.24212C105.306 1.29612 105.576 1.40412 105.792 1.56612C106.008 1.72812 106.17 1.95312 106.278 2.24112C106.386 2.51112 106.44 2.87112 106.44 3.32112V5.96712C106.89 5.78712 107.313 5.66112 107.709 5.58912C108.123 5.51712 108.573 5.48112 109.059 5.48112C109.923 5.48112 110.742 5.63412 111.516 5.94012C112.29 6.24612 112.974 6.69612 113.568 7.29012C114.162 7.86612 114.63 8.58612 114.972 9.45012C115.314 10.3141 115.485 11.3131 115.485 12.4471C115.485 13.6171 115.305 14.6431 114.945 15.5251C114.603 16.3891 114.117 17.1091 113.487 17.6851C112.857 18.2611 112.083 18.7021 111.165 19.0081C110.265 19.2961 109.266 19.4401 108.168 19.4401C106.98 19.4401 106.245 19.44 105.245 19.44C104.245 19.44 102.745 19.44 101.85 19.4401C101.85 18.2251 101.85 16.7041 101.85 15.8221V1.43112ZM108.168 15.8221C108.996 15.8221 109.635 15.5431 110.085 14.9851C110.553 14.4091 110.787 13.5631 110.787 12.4471C110.787 11.3131 110.553 10.4671 110.085 9.90912C109.617 9.35112 108.987 9.07212 108.195 9.07212C107.835 9.07212 107.52 9.10812 107.25 9.18012C106.998 9.25212 106.719 9.36012 106.413 9.50412V15.3901C106.611 15.5161 106.845 15.6241 107.115 15.7141C107.403 15.7861 107.754 15.8221 108.168 15.8221Z" fill="black"/>
<path d="M122.392 19.44C122.245 19.44 121.745 19.44 121.245 19.44C120.745 19.44 120.641 19.44 120.245 19.44C119.849 19.44 119.745 19.44 119.245 19.44C118.745 19.44 118.745 19.44 118.477 19.44C118.245 19.44 117.745 19.44 117.802 19.44C117.802 18.9205 117.802 17.7031 117.802 17.2531V1.59312C118 1.55712 118.288 1.51212 118.666 1.45812C119.062 1.38612 119.458 1.35012 119.854 1.35012C120.25 1.35012 120.601 1.37712 120.907 1.43112C121.231 1.48512 121.501 1.59312 121.717 1.75512C121.933 1.91712 122.095 2.14212 122.203 2.43012C122.329 2.70012 122.392 3.06012 122.392 3.51012V19.44Z" fill="black"/>
<path d="M125.223 2.43C125.223 1.746 125.448 1.17 125.898 0.701999C126.366 0.233999 126.978 0 127.734 0C128.49 0 129.093 0.233999 129.543 0.701999C130.011 1.17 130.245 1.746 130.245 2.43C130.245 3.114 130.011 3.69 129.543 4.158C129.093 4.626 128.49 4.86 127.734 4.86C126.978 4.86 126.366 4.626 125.898 4.158C125.448 3.69 125.223 3.114 125.223 2.43ZM130.029 19.44C129.745 19.44 129.745 19.44 129.138 19.44C128.745 19.44 128.346 19.44 127.95 19.44C127.554 19.44 127.245 19.44 126.897 19.44C126.745 19.44 125.745 19.44 125.439 19.44C125.439 19.0587 125.439 18.7072 125.439 18.36C125.439 18.0316 125.439 17.703 125.439 17.253V6.264C125.637 6.228 125.925 6.183 126.303 6.129C126.699 6.057 127.095 6.021 127.491 6.021C127.887 6.021 128.238 6.048 128.544 6.102C128.868 6.156 129.138 6.264 129.354 6.426C129.57 6.588 129.732 6.813 129.84 7.101C129.966 7.371 130.029 7.731 130.029 8.181V19.44Z" fill="black"/>
<path d="M140.307 9.04512C139.857 9.04512 139.425 9.11712 139.011 9.26112C138.615 9.40512 138.264 9.62112 137.958 9.90912C137.67 10.1791 137.436 10.5211 137.256 10.9351C137.076 11.3491 136.986 11.8351 136.986 12.3931C136.986 13.5091 137.301 14.3461 137.931 14.9041C138.579 15.4621 139.362 15.7411 140.28 15.7411C140.82 15.7411 141.288 15.6781 141.684 15.5521C142.08 15.4261 142.431 15.2911 142.737 15.1471C143.097 15.3991 143.367 15.6781 143.547 15.9841C143.727 16.2721 143.817 16.6231 143.817 17.0371C143.817 17.7751 143.466 18.3511 142.764 18.7651C142.062 19.1611 141.09 19.3591 139.848 19.3591C138.714 19.3591 137.688 19.1971 136.77 18.8731C135.852 18.5311 135.06 18.0631 134.394 17.4691C133.746 16.8571 133.242 16.1281 132.882 15.2821C132.522 14.4361 132.342 13.5001 132.342 12.4741C132.342 11.2861 132.531 10.2511 132.909 9.36912C133.305 8.46912 133.836 7.73112 134.502 7.15512C135.168 6.57912 135.933 6.14712 136.797 5.85912C137.679 5.57112 138.606 5.42712 139.578 5.42712C140.874 5.42712 141.873 5.66112 142.575 6.12912C143.277 6.59712 143.628 7.20012 143.628 7.93812C143.628 8.28012 143.547 8.60412 143.385 8.91012C143.223 9.19812 143.034 9.45012 142.818 9.66612C142.512 9.52212 142.143 9.38712 141.711 9.26112C141.279 9.11712 140.811 9.04512 140.307 9.04512Z" fill="black"/>
<path d="M39.5 17H40V16.5C40 14.8431 38.6569 13.5 37 13.5C35.3431 13.5 34 14.8431 34 16.5V17H34.5H34.5058H34.5117H34.5175H34.5233H34.529H34.5348H34.5405H34.5462H34.5519H34.5576H34.5633H34.5689H34.5745H34.5801H34.5857H34.5912H34.5968H34.6023H34.6078H34.6133H34.6187H34.6242H34.6296H34.635H34.6404H34.6458H34.6512H34.6565H34.6618H34.6671H34.6724H34.6777H34.683H34.6882H34.6934H34.6986H34.7038H34.709H34.7141H34.7193H34.7244H34.7295H34.7346H34.7397H34.7447H34.7498H34.7548H34.7598H34.7648H34.7698H34.7747H34.7797H34.7846H34.7895H34.7944H34.7993H34.8042H34.8091H34.8139H34.8187H34.8235H34.8283H34.8331H34.8379H34.8427H34.8474H34.8521H34.8568H34.8616H34.8662H34.8709H34.8756H34.8802H34.8849H34.8895H34.8941H34.8987H34.9033H34.9079H34.9124H34.917H34.9215H34.926H34.9305H34.935H34.9395H34.944H34.9484H34.9529H34.9573H34.9618H34.9662H34.9706H34.975H34.9794H34.9837H34.9881H34.9924H34.9968H35.0011H35.0054H35.0097H35.014H35.0183H35.0226H35.0269H35.0311H35.0354H35.0396H35.0438H35.048H35.0522H35.0564H35.0606H35.0648H35.069H35.0731H35.0773H35.0814H35.0856H35.0897H35.0938H35.0979H35.102H35.1061H35.1102H35.1143H35.1183H35.1224H35.1264H35.1305H35.1345H35.1386H35.1426H35.1466H35.1506H35.1546H35.1586H35.1626H35.1666H35.1705H35.1745H35.1785H35.1824H35.1864H35.1903H35.1942H35.1982H35.2021H35.206H35.2099H35.2138H35.2177H35.2216H35.2255H35.2294H35.2332H35.2371H35.241H35.2448H35.2487H35.2526H35.2564H35.2603H35.2641H35.2679H35.2718H35.2756H35.2794H35.2832H35.287H35.2908H35.2947H35.2985H35.3023H35.3061H35.3098H35.3136H35.3174H35.3212H35.325H35.3288H35.3325H35.3363H35.3401H35.3439H35.3476H35.3514H35.3551H35.3589H35.3627H35.3664H35.3702H35.3739H35.3777H35.3814H35.3852H35.3889H35.3927H35.3964H35.4001H35.4039H35.4076H35.4114H35.4151H35.4188H35.4226H35.4263H35.4301H35.4338H35.4375H35.4413H35.445H35.4487H35.4525H35.4562H35.46H35.4637H35.4674H35.4712H35.4749H35.4787H35.4824H35.4862H35.4899H35.4937H35.4974H35.5012H35.5049H35.5087H35.5124H35.5162H35.5199H35.5237H35.5275H35.5312H35.535H35.5388H35.5426H35.5463H35.5501H35.5539H35.5577H35.5615H35.5653H35.5691H35.5729H35.5767H35.5805H35.5843H35.5881H35.5919H35.5957H35.5996H35.6034H35.6072H35.6111H35.6149H35.6188H35.6226H35.6265H35.6303H35.6342H35.6381H35.642H35.6458H35.6497H35.6536H35.6575H35.6614H35.6653H35.6692H35.6732H35.6771H35.681H35.685H35.6889H35.6929H35.6968H35.7008H35.7048H35.7087H35.7127H35.7167H35.7207H35.7247H35.7287H35.7328H35.7368H35.7408H35.7449H35.7489H35.753H35.7571H35.7611H35.7652H35.7693H35.7734H35.7775H35.7816H35.7858H35.7899H35.794H35.7982H35.8023H35.8065H35.8107H35.8149H35.8191H35.8233H35.8275H35.8317H35.836H35.8402H35.8445H35.8487H35.853H35.8573H35.8616H35.8659H35.8702H35.8745H35.8789H35.8832H35.8876H35.892H35.8963H35.9007H35.9051H35.9096H35.914H35.9184H35.9229H35.9273H35.9318H35.9363H35.9408H35.9453H35.9498H35.9544H35.9589H35.9635H35.968H35.9726H35.9772H35.9818H35.9865H35.9911H35.9957H36.0004H36.0051H36.0098H36.0145H36.0192H36.0239H36.0287H36.0334H36.0382H36.043H36.0478H36.0526H36.0574H36.0623H36.0671H36.072H36.0769H36.0818H36.0867H36.0916H36.0966H36.1016H36.1065H36.1115H36.1165H36.1216H36.1266H36.1317H36.1367H36.1418H36.1469H36.152H36.1572H36.1623H36.1675H36.1727H36.1779H36.1831H36.1884H36.1936H36.1989H36.2042H36.2095H36.2148H36.2201H36.2255H36.2309H36.2363H36.2417H36.2471H36.2526H36.258H36.2635H36.269H36.2745H36.2801H36.2856H36.2912H36.2968H36.3024H36.3081H36.3137H36.3194H36.3251H36.3308H36.3365H36.3423H36.348H36.3538H36.3596H36.3655H36.3713H36.3772H36.3831H36.389H36.3949H36.4009H36.4068H36.4128H36.4188H36.4249H36.4309H36.437H36.4431H36.4492H36.4554H36.4615H36.4677H36.4739H36.4801H36.4864H36.4927H36.499H36.5053H36.5116H36.518H36.5243H36.5307H36.5372H36.5436H36.5501H36.5566H36.5631H36.5697H36.5762H36.5828H36.5894H36.5961H36.6027H36.6094H36.6161H36.6228H36.6296H36.6364H36.6432H36.65H36.6568H36.6637H36.6706H36.6775H36.6845H36.6915H36.6985H36.7055H36.7125H36.7196H36.7267H36.7338H36.741H36.7482H36.7554H36.7626H36.7699H36.7771H36.7844H36.7918H36.7991H36.8065H36.8139H36.8214H36.8288H36.8363H36.8438H36.8514H36.859H36.8666H36.8742H36.8818H36.8895H36.8972H36.905H36.9127H36.9205H36.9283H36.9362H36.9441H36.952H36.9599H36.9679H36.9759H36.9839H36.9919H37H37.0081H37.0161H37.0241H37.0321H37.0401H37.048H37.0559H37.0638H37.0717H37.0795H37.0873H37.095H37.1028H37.1105H37.1182H37.1258H37.1334H37.141H37.1486H37.1562H37.1637H37.1712H37.1786H37.1861H37.1935H37.2009H37.2082H37.2156H37.2229H37.2301H37.2374H37.2446H37.2518H37.259H37.2662H37.2733H37.2804H37.2875H37.2945H37.3015H37.3085H37.3155H37.3225H37.3294H37.3363H37.3432H37.35H37.3568H37.3636H37.3704H37.3772H37.3839H37.3906H37.3973H37.4039H37.4106H37.4172H37.4238H37.4303H37.4369H37.4434H37.4499H37.4564H37.4628H37.4692H37.4757H37.482H37.4884H37.4947H37.501H37.5073H37.5136H37.5199H37.5261H37.5323H37.5385H37.5446H37.5508H37.5569H37.563H37.5691H37.5751H37.5812H37.5872H37.5932H37.5991H37.6051H37.611H37.6169H37.6228H37.6287H37.6345H37.6404H37.6462H37.652H37.6577H37.6635H37.6692H37.6749H37.6806H37.6863H37.6919H37.6976H37.7032H37.7088H37.7144H37.7199H37.7255H37.731H37.7365H37.742H37.7474H37.7529H37.7583H37.7637H37.7691H37.7745H37.7799H37.7852H37.7905H37.7958H37.8011H37.8064H37.8116H37.8169H37.8221H37.8273H37.8325H37.8377H37.8428H37.8479H37.8531H37.8582H37.8633H37.8683H37.8734H37.8784H37.8835H37.8885H37.8935H37.8984H37.9034H37.9084H37.9133H37.9182H37.9231H37.928H37.9329H37.9377H37.9426H37.9474H37.9522H37.957H37.9618H37.9666H37.9713H37.9761H37.9808H37.9855H37.9902H37.9949H37.9996H38.0043H38.0089H38.0135H38.0182H38.0228H38.0274H38.032H38.0365H38.0411H38.0456H38.0502H38.0547H38.0592H38.0637H38.0682H38.0727H38.0771H38.0816H38.086H38.0904H38.0949H38.0993H38.1037H38.108H38.1124H38.1168H38.1211H38.1255H38.1298H38.1341H38.1384H38.1427H38.147H38.1513H38.1555H38.1598H38.164H38.1683H38.1725H38.1767H38.1809H38.1851H38.1893H38.1935H38.1977H38.2018H38.206H38.2101H38.2142H38.2184H38.2225H38.2266H38.2307H38.2348H38.2389H38.2429H38.247H38.2511H38.2551H38.2592H38.2632H38.2672H38.2713H38.2753H38.2793H38.2833H38.2873H38.2913H38.2952H38.2992H38.3032H38.3071H38.3111H38.315H38.319H38.3229H38.3268H38.3308H38.3347H38.3386H38.3425H38.3464H38.3503H38.3542H38.358H38.3619H38.3658H38.3697H38.3735H38.3774H38.3812H38.3851H38.3889H38.3928H38.3966H38.4004H38.4043H38.4081H38.4119H38.4157H38.4195H38.4233H38.4271H38.4309H38.4347H38.4385H38.4423H38.4461H38.4499H38.4537H38.4574H38.4612H38.465H38.4688H38.4725H38.4763H38.4801H38.4838H38.4876H38.4913H38.4951H38.4988H38.5026H38.5063H38.5101H38.5138H38.5176H38.5213H38.5251H38.5288H38.5326H38.5363H38.54H38.5438H38.5475H38.5513H38.555H38.5587H38.5625H38.5662H38.5699H38.5737H38.5774H38.5812H38.5849H38.5886H38.5924H38.5961H38.5999H38.6036H38.6073H38.6111H38.6148H38.6186H38.6223H38.6261H38.6298H38.6336H38.6373H38.6411H38.6449H38.6486H38.6524H38.6561H38.6599H38.6637H38.6675H38.6712H38.675H38.6788H38.6826H38.6864H38.6902H38.6939H38.6977H38.7015H38.7053H38.7091H38.713H38.7168H38.7206H38.7244H38.7282H38.7321H38.7359H38.7397H38.7436H38.7474H38.7513H38.7551H38.759H38.7629H38.7667H38.7706H38.7745H38.7784H38.7823H38.7862H38.7901H38.794H38.7979H38.8018H38.8058H38.8097H38.8136H38.8176H38.8215H38.8255H38.8295H38.8334H38.8374H38.8414H38.8454H38.8494H38.8534H38.8574H38.8614H38.8655H38.8695H38.8736H38.8776H38.8817H38.8857H38.8898H38.8939H38.898H38.9021H38.9062H38.9103H38.9144H38.9186H38.9227H38.9269H38.931H38.9352H38.9394H38.9436H38.9478H38.952H38.9562H38.9604H38.9646H38.9689H38.9731H38.9774H38.9817H38.986H38.9903H38.9946H38.9989H39.0032H39.0076H39.0119H39.0163H39.0206H39.025H39.0294H39.0338H39.0382H39.0427H39.0471H39.0515H39.056H39.0605H39.065H39.0695H39.074H39.0785H39.083H39.0876H39.0921H39.0967H39.1013H39.1059H39.1105H39.1151H39.1198H39.1244H39.1291H39.1338H39.1384H39.1431H39.1479H39.1526H39.1573H39.1621H39.1669H39.1717H39.1765H39.1813H39.1861H39.1909H39.1958H39.2007H39.2056H39.2105H39.2154H39.2203H39.2253H39.2302H39.2352H39.2402H39.2452H39.2502H39.2553H39.2603H39.2654H39.2705H39.2756H39.2807H39.2859H39.291H39.2962H39.3014H39.3066H39.3118H39.317H39.3223H39.3276H39.3329H39.3382H39.3435H39.3488H39.3542H39.3596H39.365H39.3704H39.3758H39.3812H39.3867H39.3922H39.3977H39.4032H39.4088H39.4143H39.4199H39.4255H39.4311H39.4367H39.4424H39.4481H39.4538H39.4595H39.4652H39.471H39.4767H39.4825H39.4883H39.4942H39.5ZM31.0054 19C31.0944 14.9293 32.2723 12.9761 33.4957 12.0188C34.7875 11.0078 36.2549 11 37 11C37.7451 11 39.2125 11.0078 40.5043 12.0188C41.7277 12.9761 42.9056 14.9293 42.9946 19H42.9876H42.9721H42.9566H42.9412H42.9259H42.9107H42.8955H42.8803H42.8652H42.8502H42.8353H42.8204H42.8055H42.7907H42.776H42.7613H42.7467H42.7321H42.7176H42.7032H42.6888H42.6745H42.6602H42.646H42.6318H42.6177H42.6036H42.5896H42.5756H42.5617H42.5479H42.5341H42.5203H42.5066H42.493H42.4794H42.4658H42.4523H42.4389H42.4255H42.4122H42.3989H42.3856H42.3724H42.3593H42.3462H42.3331H42.3201H42.3071H42.2942H42.2814H42.2685H42.2558H42.243H42.2304H42.2177H42.2051H42.1926H42.1801H42.1676H42.1552H42.1428H42.1305H42.1182H42.106H42.0938H42.0816H42.0695H42.0574H42.0454H42.0334H42.0214H42.0095H41.9976H41.9858H41.974H41.9622H41.9505H41.9388H41.9271H41.9155H41.904H41.8924H41.8809H41.8695H41.858H41.8466H41.8353H41.8239H41.8127H41.8014H41.7902H41.779H41.7679H41.7567H41.7456H41.7346H41.7236H41.7126H41.7016H41.6907H41.6798H41.6689H41.6581H41.6473H41.6365H41.6258H41.6151H41.6044H41.5937H41.5831H41.5725H41.5619H41.5514H41.5409H41.5304H41.5199H41.5095H41.4991H41.4887H41.4783H41.468H41.4577H41.4474H41.4371H41.4269H41.4167H41.4065H41.3963H41.3861H41.376H41.3659H41.3558H41.3458H41.3357H41.3257H41.3157H41.3057H41.2958H41.2858H41.2759H41.266H41.2561H41.2463H41.2364H41.2266H41.2168H41.207H41.1972H41.1875H41.1777H41.168H41.1583H41.1486H41.1389H41.1292H41.1196H41.11H41.1003H41.0907H41.0811H41.0715H41.062H41.0524H41.0429H41.0333H41.0238H41.0143H41.0048H40.9953H40.9858H40.9763H40.9669H40.9574H40.948H40.9386H40.9291H40.9197H40.9103H40.9009H40.8915H40.8821H40.8727H40.8634H40.854H40.8446H40.8353H40.8259H40.8166H40.8072H40.7979H40.7885H40.7792H40.7699H40.7605H40.7512H40.7419H40.7326H40.7233H40.7139H40.7046H40.6953H40.686H40.6767H40.6674H40.658H40.6487H40.6394H40.6301H40.6208H40.6115H40.6021H40.5928H40.5835H40.5741H40.5648H40.5555H40.5461H40.5368H40.5274H40.5181H40.5087H40.4993H40.49H40.4806H40.4712H40.4618H40.4524H40.443H40.4336H40.4242H40.4147H40.4053H40.3958H40.3864H40.3769H40.3674H40.3579H40.3484H40.3389H40.3294H40.3199H40.3103H40.3008H40.2912H40.2816H40.2721H40.2624H40.2528H40.2432H40.2336H40.2239H40.2142H40.2045H40.1948H40.1851H40.1754H40.1656H40.1558H40.1461H40.1363H40.1264H40.1166H40.1067H40.0969H40.087H40.0771H40.0671H40.0572H40.0472H40.0372H40.0272H40.0172H40.0071H39.9971H39.987H39.9768H39.9667H39.9565H39.9464H39.9362H39.9259H39.9157H39.9054H39.8951H39.8848H39.8744H39.864H39.8536H39.8432H39.8327H39.8223H39.8118H39.8012H39.7907H39.7801H39.7694H39.7588H39.7481H39.7374H39.7267H39.7159H39.7051H39.6943H39.6835H39.6726H39.6617H39.6507H39.6397H39.6287H39.6177H39.6066H39.5955H39.5844H39.5732H39.562H39.5508H39.5395H39.5282H39.5168H39.5055H39.494H39.4826H39.4711H39.4596H39.448H39.4364H39.4248H39.4131H39.4014H39.3897H39.3779H39.366H39.3542H39.3423H39.3303H39.3184H39.3063H39.2943H39.2822H39.27H39.2578H39.2456H39.2333H39.221H39.2087H39.1963H39.1838H39.1713H39.1588H39.1462H39.1336H39.1209H39.1082H39.0955H39.0827H39.0698H39.0569H39.044H39.031H39.018H39.0049H38.9917H38.9786H38.9653H38.9521H38.9387H38.9254H38.9119H38.8985H38.8849H38.8714H38.8577H38.8441H38.8303H38.8165H38.8027H38.7888H38.7749H38.7609H38.7469H38.7328H38.7186H38.7044H38.6901H38.6758H38.6614H38.647H38.6325H38.618H38.6034H38.5888H38.574H38.5593H38.5445H38.5296H38.5146H38.4996H38.4846H38.4695H38.4543H38.4391H38.4238H38.4084H38.393H38.3775H38.362H38.3464H38.3307H38.315H38.2992H38.2834H38.2674H38.2515H38.2354H38.2193H38.2032H38.1869H38.1706H38.1543H38.1378H38.1214H38.1048H38.0882H38.0715H38.0547H38.0379H38.021H38.004H37.987H37.9699H37.9527H37.9355H37.9182H37.9008H37.8834H37.8659H37.8483H37.8306H37.8129H37.7951H37.7772H37.7593H37.7413H37.7232H37.705H37.6868H37.6685H37.6501H37.6316H37.6131H37.5945H37.5758H37.5571H37.5382H37.5193H37.5003H37.4813H37.4621H37.4429H37.4236H37.4042H37.3848H37.3653H37.3457H37.326H37.3062H37.2864H37.2664H37.2464H37.2263H37.2062H37.1859H37.1656H37.1452H37.1247H37.1041H37.0835H37.0627H37.0419H37.021H37H36.979H36.9581H36.9373H36.9165H36.8959H36.8753H36.8548H36.8344H36.8141H36.7938H36.7737H36.7536H36.7336H36.7136H36.6938H36.674H36.6543H36.6347H36.6152H36.5958H36.5764H36.5571H36.5379H36.5187H36.4997H36.4807H36.4618H36.4429H36.4242H36.4055H36.3869H36.3684H36.3499H36.3315H36.3132H36.295H36.2768H36.2587H36.2407H36.2228H36.2049H36.1871H36.1694H36.1517H36.1341H36.1166H36.0992H36.0818H36.0645H36.0473H36.0301H36.013H35.996H35.979H35.9621H35.9453H35.9285H35.9118H35.8952H35.8786H35.8622H35.8457H35.8294H35.8131H35.7968H35.7807H35.7646H35.7485H35.7326H35.7166H35.7008H35.685H35.6693H35.6536H35.638H35.6225H35.607H35.5916H35.5762H35.5609H35.5457H35.5305H35.5154H35.5004H35.4854H35.4704H35.4555H35.4407H35.426H35.4112H35.3966H35.382H35.3675H35.353H35.3386H35.3242H35.3099H35.2956H35.2814H35.2672H35.2531H35.2391H35.2251H35.2112H35.1973H35.1835H35.1697H35.1559H35.1423H35.1286H35.1151H35.1015H35.0881H35.0746H35.0613H35.0479H35.0347H35.0214H35.0083H34.9951H34.982H34.969H34.956H34.9431H34.9302H34.9173H34.9045H34.8918H34.8791H34.8664H34.8538H34.8412H34.8287H34.8162H34.8037H34.7913H34.779H34.7667H34.7544H34.7422H34.73H34.7178H34.7057H34.6937H34.6816H34.6697H34.6577H34.6458H34.634H34.6221H34.6103H34.5986H34.5869H34.5752H34.5636H34.552H34.5404H34.5289H34.5174H34.506H34.4945H34.4832H34.4718H34.4605H34.4492H34.438H34.4268H34.4156H34.4045H34.3934H34.3823H34.3713H34.3603H34.3493H34.3383H34.3274H34.3165H34.3057H34.2949H34.2841H34.2733H34.2626H34.2519H34.2412H34.2306H34.2199H34.2093H34.1988H34.1882H34.1777H34.1673H34.1568H34.1464H34.136H34.1256H34.1152H34.1049H34.0946H34.0843H34.0741H34.0638H34.0536H34.0435H34.0333H34.0232H34.013H34.0029H33.9929H33.9828H33.9728H33.9628H33.9528H33.9428H33.9329H33.9229H33.913H33.9031H33.8933H33.8834H33.8736H33.8637H33.8539H33.8442H33.8344H33.8246H33.8149H33.8052H33.7955H33.7858H33.7761H33.7665H33.7568H33.7472H33.7376H33.7279H33.7184H33.7088H33.6992H33.6897H33.6801H33.6706H33.6611H33.6516H33.6421H33.6326H33.6231H33.6136H33.6042H33.5947H33.5853H33.5758H33.5664H33.557H33.5476H33.5382H33.5288H33.5194H33.51H33.5007H33.4913H33.4819H33.4726H33.4632H33.4539H33.4445H33.4352H33.4259H33.4165H33.4072H33.3979H33.3885H33.3792H33.3699H33.3606H33.3513H33.342H33.3326H33.3233H33.314H33.3047H33.2954H33.2861H33.2767H33.2674H33.2581H33.2488H33.2395H33.2301H33.2208H33.2115H33.2021H33.1928H33.1834H33.1741H33.1647H33.1554H33.146H33.1366H33.1273H33.1179H33.1085H33.0991H33.0897H33.0803H33.0709H33.0614H33.052H33.0426H33.0331H33.0237H33.0142H33.0047H32.9952H32.9857H32.9762H32.9667H32.9571H32.9476H32.938H32.9285H32.9189H32.9093H32.8997H32.89H32.8804H32.8708H32.8611H32.8514H32.8417H32.832H32.8223H32.8125H32.8028H32.793H32.7832H32.7734H32.7636H32.7537H32.7439H32.734H32.7241H32.7142H32.7042H32.6943H32.6843H32.6743H32.6643H32.6542H32.6442H32.6341H32.624H32.6139H32.6037H32.5935H32.5833H32.5731H32.5629H32.5526H32.5423H32.532H32.5217H32.5113H32.5009H32.4905H32.4801H32.4696H32.4591H32.4486H32.4381H32.4275H32.4169H32.4063H32.3956H32.3849H32.3742H32.3635H32.3527H32.3419H32.3311H32.3202H32.3093H32.2984H32.2874H32.2764H32.2654H32.2544H32.2433H32.2321H32.221H32.2098H32.1986H32.1873H32.1761H32.1647H32.1534H32.142H32.1305H32.1191H32.1076H32.096H32.0845H32.0729H32.0612H32.0495H32.0378H32.026H32.0142H32.0024H31.9905H31.9786H31.9666H31.9546H31.9426H31.9305H31.9184H31.9062H31.894H31.8818H31.8695H31.8572H31.8448H31.8324H31.8199H31.8074H31.7949H31.7823H31.7696H31.757H31.7442H31.7315H31.7186H31.7058H31.6929H31.6799H31.6669H31.6538H31.6407H31.6276H31.6144H31.6011H31.5878H31.5745H31.5611H31.5477H31.5342H31.5206H31.507H31.4934H31.4797H31.4659H31.4521H31.4383H31.4244H31.4104H31.3964H31.3823H31.3682H31.354H31.3398H31.3255H31.3112H31.2968H31.2824H31.2679H31.2533H31.2387H31.224H31.2093H31.1945H31.1796H31.1647H31.1498H31.1348H31.1197H31.1045H31.0893H31.0741H31.0588H31.0434H31.0279H31.0124H31.0054Z" fill="#AA3EFF" stroke="black"/>
</svg>
