<svg width="114" height="23" viewBox="0 0 114 23" fill="none" xmlns="http://www.w3.org/2000/svg">
<path id="Lifeinpublic" d="M8.98047 14.5615C8.98047 14.8695 9.01628 15.1201 9.08789 15.3135C9.16667 15.4997 9.27767 15.6465 9.4209 15.7539C9.56413 15.8613 9.74316 15.9365 9.95801 15.9795C10.18 16.0153 10.4378 16.0332 10.7314 16.0332C11.2041 16.0332 11.6302 15.9867 12.0098 15.8936C12.3893 15.7933 12.7223 15.6859 13.0088 15.5713C13.2952 15.4495 13.5352 15.3385 13.7285 15.2383C13.929 15.138 14.083 15.0879 14.1904 15.0879C14.3265 15.0879 14.4339 15.1309 14.5127 15.2168C14.5915 15.3027 14.6309 15.4281 14.6309 15.5928C14.6309 15.8792 14.6022 16.0869 14.5449 16.2158C14.4876 16.3376 14.3695 16.4307 14.1904 16.4951C13.5387 16.7243 12.8047 16.8926 11.9883 17C11.1719 17.1146 10.248 17.1719 9.2168 17.1719C8.45052 17.1719 7.82389 17.1361 7.33691 17.0645C6.84993 17 6.4668 16.8818 6.1875 16.71C5.9082 16.5381 5.71484 16.3053 5.60742 16.0117C5.50716 15.7109 5.45703 15.3278 5.45703 14.8623V2.65918C5.45703 2.50163 5.43913 2.3763 5.40332 2.2832C5.36751 2.1901 5.31738 2.11849 5.25293 2.06836C5.18848 2.01107 5.1097 1.97526 5.0166 1.96094C4.93066 1.93945 4.83398 1.92871 4.72656 1.92871C4.56901 1.92871 4.37207 1.95378 4.13574 2.00391C3.90658 2.05404 3.66309 2.12923 3.40527 2.22949C3.14746 2.32975 2.88607 2.45508 2.62109 2.60547C2.36328 2.7487 2.13053 2.91341 1.92285 3.09961C1.72233 3.28581 1.55762 3.49349 1.42871 3.72266C1.2998 3.95182 1.23535 4.19889 1.23535 4.46387C1.23535 4.69303 1.264 4.87565 1.32129 5.01172C1.38574 5.14779 1.45736 5.25163 1.53613 5.32324C1.61491 5.3877 1.69368 5.43066 1.77246 5.45215C1.8584 5.46647 1.91927 5.47363 1.95508 5.47363C2.13411 5.47363 2.28092 5.44499 2.39551 5.3877C2.51009 5.32324 2.61393 5.25879 2.70703 5.19434C2.80013 5.12272 2.88607 5.05827 2.96484 5.00098C3.05078 4.93652 3.14746 4.9043 3.25488 4.9043C3.34082 4.9043 3.43034 4.92578 3.52344 4.96875C3.6237 5.00456 3.71322 5.06543 3.79199 5.15137C3.87793 5.2373 3.94954 5.35189 4.00684 5.49512C4.06413 5.63118 4.09277 5.79948 4.09277 6C4.09277 6.28646 4.03548 6.53353 3.9209 6.74121C3.81348 6.94889 3.67025 7.12435 3.49121 7.26758C3.31934 7.40365 3.11882 7.50749 2.88965 7.5791C2.66764 7.64355 2.44564 7.67578 2.22363 7.67578C1.87988 7.67578 1.56836 7.61849 1.28906 7.50391C1.01693 7.38216 0.78418 7.21745 0.59082 7.00977C0.397461 6.80208 0.250651 6.55859 0.150391 6.2793C0.0501302 6 0 5.7028 0 5.3877C0 4.89355 0.0895182 4.44238 0.268555 4.03418C0.447591 3.61882 0.691081 3.24642 0.999023 2.91699C1.31413 2.58757 1.67936 2.30111 2.09473 2.05762C2.51725 1.80697 2.97201 1.59928 3.45898 1.43457C3.94596 1.26986 4.45443 1.14811 4.98438 1.06934C5.51432 0.983398 6.04427 0.94043 6.57422 0.94043C7.16146 0.94043 7.61621 0.997721 7.93848 1.1123C8.2679 1.21973 8.50781 1.35221 8.6582 1.50977C8.81576 1.66732 8.90885 1.83203 8.9375 2.00391C8.96615 2.17578 8.98047 2.31901 8.98047 2.43359V14.5615ZM19.1855 16.0332C19.1855 16.1263 19.1676 16.2409 19.1318 16.377C19.1032 16.5059 19.028 16.6312 18.9062 16.7529C18.7917 16.8675 18.6234 16.9642 18.4014 17.043C18.1794 17.1289 17.8786 17.1719 17.499 17.1719C17.1195 17.1719 16.8223 17.1253 16.6074 17.0322C16.3926 16.9463 16.2314 16.8424 16.124 16.7207C16.0166 16.599 15.9486 16.4736 15.9199 16.3447C15.8984 16.2158 15.8877 16.112 15.8877 16.0332V7.74023C15.8877 7.53255 15.8376 7.35352 15.7373 7.20312C15.6442 7.04557 15.4831 6.9668 15.2539 6.9668C15.1322 6.9668 15.0283 6.98828 14.9424 7.03125C14.8564 7.07422 14.7633 7.13509 14.6631 7.21387L14.4375 6.94531C14.6022 6.80924 14.7848 6.67676 14.9854 6.54785C15.193 6.41178 15.415 6.29362 15.6514 6.19336C15.8877 6.0931 16.1419 6.01074 16.4141 5.94629C16.6862 5.88184 16.9727 5.84961 17.2734 5.84961C17.7389 5.84961 18.1006 5.91406 18.3584 6.04297C18.6162 6.16471 18.806 6.31868 18.9277 6.50488C19.0495 6.68392 19.1211 6.87728 19.1426 7.08496C19.1712 7.29264 19.1855 7.47526 19.1855 7.63281V16.0332ZM15.5547 3.40039C15.5547 3.19987 15.5977 3.01009 15.6836 2.83105C15.7767 2.64486 15.902 2.48372 16.0596 2.34766C16.2243 2.21159 16.4105 2.10417 16.6182 2.02539C16.833 1.94661 17.0658 1.90723 17.3164 1.90723C17.5599 1.90723 17.7855 1.94661 17.9932 2.02539C18.208 2.10417 18.3942 2.21159 18.5518 2.34766C18.7093 2.48372 18.8311 2.64486 18.917 2.83105C19.0101 3.01009 19.0566 3.19987 19.0566 3.40039C19.0566 3.60807 19.0101 3.80143 18.917 3.98047C18.8311 4.15951 18.7093 4.31706 18.5518 4.45312C18.3942 4.58203 18.208 4.68587 17.9932 4.76465C17.7855 4.84342 17.5599 4.88281 17.3164 4.88281C17.0658 4.88281 16.833 4.84342 16.6182 4.76465C16.4105 4.68587 16.2243 4.58203 16.0596 4.45312C15.902 4.31706 15.7767 4.15951 15.6836 3.98047C15.5977 3.80143 15.5547 3.60807 15.5547 3.40039ZM27.1992 1.02637C26.9987 1.02637 26.8089 1.06934 26.6299 1.15527C26.4508 1.24121 26.2933 1.38086 26.1572 1.57422C26.0283 1.76042 25.9245 2.00033 25.8457 2.29395C25.7669 2.58757 25.7275 2.94206 25.7275 3.35742V6H28.0801V6.77344H25.7275V15.2383C25.7275 16.2122 25.5986 17.111 25.3408 17.9346C25.0902 18.7581 24.707 19.4671 24.1914 20.0615C23.6758 20.6631 23.0312 21.1322 22.2578 21.4688C21.4844 21.8053 20.582 21.9736 19.5508 21.9736C19.1855 21.9736 18.8346 21.9414 18.498 21.877C18.1615 21.8197 17.8643 21.7373 17.6064 21.6299C17.3486 21.5225 17.1445 21.3936 16.9941 21.2432C16.8366 21.0999 16.7578 20.9388 16.7578 20.7598C16.7578 20.6309 16.7757 20.4984 16.8115 20.3623C16.8473 20.2334 16.901 20.1152 16.9727 20.0078C17.0443 19.9004 17.1338 19.8109 17.2412 19.7393C17.3415 19.6748 17.4596 19.6426 17.5957 19.6426C17.6745 19.6426 17.7461 19.682 17.8105 19.7607C17.8678 19.8395 17.9287 19.9362 17.9932 20.0508C18.0576 20.1654 18.1328 20.2907 18.2188 20.4268C18.2975 20.57 18.4014 20.6989 18.5303 20.8135C18.6592 20.9281 18.8203 21.0247 19.0137 21.1035C19.1999 21.1823 19.429 21.2217 19.7012 21.2217C20.0664 21.2217 20.3887 21.1465 20.668 20.9961C20.9473 20.8529 21.1872 20.6523 21.3877 20.3945C21.5882 20.1367 21.7565 19.8324 21.8926 19.4814C22.0286 19.1305 22.1361 18.7546 22.2148 18.3535C22.2936 17.9525 22.3473 17.5335 22.376 17.0967C22.4118 16.6598 22.4297 16.223 22.4297 15.7861V6.77344H20.4531V6H22.4297V4.74316C22.4297 4.11296 22.5049 3.5651 22.6553 3.09961C22.8128 2.62695 23.0169 2.22591 23.2676 1.89648C23.5254 1.56706 23.8154 1.2985 24.1377 1.09082C24.46 0.883138 24.7858 0.718424 25.1152 0.59668C25.4518 0.474935 25.7777 0.392578 26.0928 0.349609C26.4079 0.306641 26.6836 0.285156 26.9199 0.285156C27.4284 0.285156 27.8796 0.324544 28.2734 0.40332C28.6673 0.474935 28.9967 0.575195 29.2617 0.704102C29.5267 0.825846 29.7272 0.969076 29.8633 1.13379C29.9993 1.2985 30.0674 1.4668 30.0674 1.63867C30.0674 1.76758 30.0459 1.90007 30.0029 2.03613C29.9671 2.16504 29.9134 2.28678 29.8418 2.40137C29.7702 2.50879 29.6807 2.59831 29.5732 2.66992C29.473 2.73438 29.3584 2.7666 29.2295 2.7666C29.1507 2.7666 29.0791 2.72363 29.0146 2.6377C28.9502 2.55176 28.8822 2.44434 28.8105 2.31543C28.7389 2.18652 28.6602 2.04688 28.5742 1.89648C28.4883 1.74609 28.3809 1.60645 28.252 1.47754C28.1302 1.34863 27.9834 1.24121 27.8115 1.15527C27.6396 1.06934 27.4355 1.02637 27.1992 1.02637ZM31.6143 12.0693C31.6143 12.2985 31.6465 12.5492 31.7109 12.8213C31.7826 13.0863 31.8828 13.3548 32.0117 13.627C32.1406 13.8991 32.2982 14.1605 32.4844 14.4111C32.6777 14.6546 32.8962 14.873 33.1396 15.0664C33.3903 15.2598 33.666 15.4137 33.9668 15.5283C34.2676 15.6429 34.597 15.7002 34.9551 15.7002C35.2057 15.7002 35.4385 15.6715 35.6533 15.6143C35.8682 15.557 36.0687 15.4782 36.2549 15.3779C36.4411 15.2777 36.6201 15.1631 36.792 15.0342C36.9639 14.8981 37.1357 14.7549 37.3076 14.6045L37.5762 14.8623C37.4115 15.0843 37.2002 15.3278 36.9424 15.5928C36.6846 15.8577 36.373 16.1084 36.0078 16.3447C35.6426 16.5739 35.2165 16.7673 34.7295 16.9248C34.2425 17.0752 33.6875 17.1504 33.0645 17.1504C32.4414 17.1504 31.8327 17.0394 31.2383 16.8174C30.651 16.5882 30.1283 16.248 29.6699 15.7969C29.2116 15.3457 28.8428 14.7835 28.5635 14.1104C28.2913 13.4372 28.1553 12.6494 28.1553 11.7471C28.1553 11.0954 28.2376 10.4974 28.4023 9.95312C28.5671 9.40885 28.7891 8.91829 29.0684 8.48145C29.3548 8.0446 29.6842 7.66146 30.0566 7.33203C30.4362 7.0026 30.8337 6.73047 31.249 6.51562C31.6644 6.29362 32.0869 6.12891 32.5166 6.02148C32.9535 5.9069 33.3724 5.84961 33.7734 5.84961C34.3034 5.84961 34.7653 5.9069 35.1592 6.02148C35.5531 6.13607 35.8789 6.29004 36.1367 6.4834C36.4017 6.67676 36.5986 6.90234 36.7275 7.16016C36.8564 7.41081 36.9209 7.67578 36.9209 7.95508C36.9209 8.29167 36.8242 8.59603 36.6309 8.86816C36.4375 9.13314 36.1797 9.36589 35.8574 9.56641L31.6143 12.0693ZM33.7734 9.88867C33.8665 9.83138 33.9417 9.77767 33.999 9.72754C34.0635 9.67025 34.1136 9.60579 34.1494 9.53418C34.1852 9.4554 34.2103 9.3623 34.2246 9.25488C34.2461 9.1403 34.2568 9.00065 34.2568 8.83594C34.2568 8.6569 34.2354 8.45996 34.1924 8.24512C34.1566 8.02311 34.0921 7.81543 33.999 7.62207C33.9059 7.42871 33.7878 7.26758 33.6445 7.13867C33.5013 7.00977 33.3294 6.94531 33.1289 6.94531C32.8711 6.94531 32.6491 7.02409 32.4629 7.18164C32.2839 7.33203 32.1335 7.52897 32.0117 7.77246C31.8971 8.01595 31.804 8.29525 31.7324 8.61035C31.668 8.91829 31.6178 9.22982 31.582 9.54492C31.5462 9.86003 31.5247 10.1644 31.5176 10.458C31.5104 10.7445 31.5068 10.988 31.5068 11.1885L33.7734 9.88867ZM42.4531 16.0332C42.4531 16.1263 42.4352 16.2409 42.3994 16.377C42.3708 16.5059 42.2956 16.6312 42.1738 16.7529C42.0592 16.8675 41.891 16.9642 41.6689 17.043C41.4469 17.1289 41.1462 17.1719 40.7666 17.1719C40.387 17.1719 40.0898 17.1253 39.875 17.0322C39.6602 16.9463 39.499 16.8424 39.3916 16.7207C39.2842 16.599 39.2161 16.4736 39.1875 16.3447C39.166 16.2158 39.1553 16.112 39.1553 16.0332V7.74023C39.1553 7.53255 39.1051 7.35352 39.0049 7.20312C38.9118 7.04557 38.7507 6.9668 38.5215 6.9668C38.3997 6.9668 38.2959 6.98828 38.21 7.03125C38.124 7.07422 38.0309 7.13509 37.9307 7.21387L37.7051 6.94531C37.8698 6.80924 38.0524 6.67676 38.2529 6.54785C38.4606 6.41178 38.6826 6.29362 38.9189 6.19336C39.1553 6.0931 39.4095 6.01074 39.6816 5.94629C39.9538 5.88184 40.2402 5.84961 40.541 5.84961C41.0065 5.84961 41.3682 5.91406 41.626 6.04297C41.8838 6.16471 42.0736 6.31868 42.1953 6.50488C42.3171 6.68392 42.3887 6.87728 42.4102 7.08496C42.4388 7.29264 42.4531 7.47526 42.4531 7.63281V16.0332ZM38.8223 3.40039C38.8223 3.19987 38.8652 3.01009 38.9512 2.83105C39.0443 2.64486 39.1696 2.48372 39.3271 2.34766C39.4919 2.21159 39.6781 2.10417 39.8857 2.02539C40.1006 1.94661 40.3333 1.90723 40.584 1.90723C40.8275 1.90723 41.0531 1.94661 41.2607 2.02539C41.4756 2.10417 41.6618 2.21159 41.8193 2.34766C41.9769 2.48372 42.0986 2.64486 42.1846 2.83105C42.2777 3.01009 42.3242 3.19987 42.3242 3.40039C42.3242 3.60807 42.2777 3.80143 42.1846 3.98047C42.0986 4.15951 41.9769 4.31706 41.8193 4.45312C41.6618 4.58203 41.4756 4.68587 41.2607 4.76465C41.0531 4.84342 40.8275 4.88281 40.584 4.88281C40.3333 4.88281 40.1006 4.84342 39.8857 4.76465C39.6781 4.68587 39.4919 4.58203 39.3271 4.45312C39.1696 4.31706 39.0443 4.15951 38.9512 3.98047C38.8652 3.80143 38.8223 3.60807 38.8223 3.40039ZM51.4873 11.6504C51.4873 10.748 51.4443 10.0283 51.3584 9.49121C51.2796 8.94694 51.1722 8.53516 51.0361 8.25586C50.9001 7.9694 50.7497 7.7832 50.585 7.69727C50.4202 7.60417 50.252 7.55762 50.0801 7.55762C49.8724 7.55762 49.6862 7.61491 49.5215 7.72949C49.3639 7.83691 49.2243 7.96224 49.1025 8.10547C48.988 8.2487 48.8877 8.39193 48.8018 8.53516C48.723 8.67839 48.6549 8.78581 48.5977 8.85742V16.0332C48.5977 16.1263 48.5833 16.2409 48.5547 16.377C48.526 16.5059 48.4544 16.6312 48.3398 16.7529C48.2324 16.8675 48.0677 16.9642 47.8457 17.043C47.6309 17.1289 47.3337 17.1719 46.9541 17.1719C46.5745 17.1719 46.2738 17.1253 46.0518 17.0322C45.8369 16.9463 45.6722 16.8424 45.5576 16.7207C45.443 16.599 45.3714 16.4736 45.3428 16.3447C45.3141 16.2158 45.2998 16.112 45.2998 16.0332V7.74023C45.2998 7.53255 45.2497 7.35352 45.1494 7.20312C45.0563 7.04557 44.8952 6.9668 44.666 6.9668C44.5443 6.9668 44.4404 6.98828 44.3545 7.03125C44.2686 7.07422 44.1755 7.13509 44.0752 7.21387L43.8496 6.94531C44.0143 6.80924 44.1969 6.67676 44.3975 6.54785C44.6051 6.41178 44.8271 6.29362 45.0635 6.19336C45.2998 6.0931 45.554 6.01074 45.8262 5.94629C46.0983 5.88184 46.3848 5.84961 46.6855 5.84961C47.151 5.84961 47.5127 5.92839 47.7705 6.08594C48.0283 6.23633 48.2181 6.41895 48.3398 6.63379C48.4616 6.84863 48.5332 7.07422 48.5547 7.31055C48.5833 7.53971 48.5977 7.73307 48.5977 7.89062C48.8626 7.51107 49.1634 7.1709 49.5 6.87012C49.6361 6.74121 49.7865 6.61589 49.9512 6.49414C50.123 6.3724 50.3021 6.26497 50.4883 6.17188C50.6816 6.07161 50.8822 5.99284 51.0898 5.93555C51.3047 5.87826 51.5231 5.84961 51.7451 5.84961C52.2321 5.84961 52.6618 5.94271 53.0342 6.12891C53.4137 6.3151 53.7324 6.62663 53.9902 7.06348C54.248 7.50033 54.445 8.0804 54.5811 8.80371C54.7171 9.51986 54.7852 10.4115 54.7852 11.4785C54.7852 12.5169 54.6921 13.4193 54.5059 14.1855C54.3197 14.9518 54.0762 15.6035 53.7754 16.1406C53.4746 16.6777 53.1344 17.1146 52.7549 17.4512C52.3753 17.7949 51.9922 18.0635 51.6055 18.2568C51.2188 18.4502 50.8464 18.5827 50.4883 18.6543C50.1374 18.7331 49.833 18.776 49.5752 18.7832L49.457 18.3428C49.6719 18.2926 49.8688 18.2139 50.0479 18.1064C50.234 17.999 50.4023 17.8415 50.5527 17.6338C50.7031 17.4261 50.8356 17.1647 50.9502 16.8496C51.0648 16.5273 51.1615 16.1263 51.2402 15.6465C51.3262 15.1667 51.387 14.6009 51.4229 13.9492C51.4658 13.2904 51.4873 12.5241 51.4873 11.6504ZM57.1377 7.74023C57.1377 7.53255 57.0876 7.35352 56.9873 7.20312C56.8942 7.04557 56.7331 6.9668 56.5039 6.9668C56.3822 6.9668 56.2783 6.98828 56.1924 7.03125C56.1064 7.07422 56.0133 7.13509 55.9131 7.21387L55.6875 6.94531C55.8522 6.80924 56.0348 6.67676 56.2354 6.54785C56.443 6.41178 56.665 6.29362 56.9014 6.19336C57.1377 6.0931 57.3919 6.01074 57.6641 5.94629C57.9362 5.88184 58.2227 5.84961 58.5234 5.84961C58.8457 5.84961 59.1214 5.89974 59.3506 6C59.5798 6.10026 59.7695 6.22201 59.9199 6.36523C60.0775 6.5013 60.1956 6.64811 60.2744 6.80566C60.3532 6.95605 60.3997 7.08496 60.4141 7.19238C60.5573 6.99186 60.7256 6.80924 60.9189 6.64453C61.1195 6.47982 61.3343 6.34017 61.5635 6.22559C61.7998 6.10384 62.0469 6.01074 62.3047 5.94629C62.5697 5.88184 62.8418 5.84961 63.1211 5.84961C63.694 5.84961 64.2132 5.96777 64.6787 6.2041C65.1442 6.44043 65.5417 6.79134 65.8711 7.25684C66.2077 7.72233 66.4655 8.29883 66.6445 8.98633C66.8236 9.67383 66.9131 10.4688 66.9131 11.3711C66.9131 12.4167 66.8021 13.3083 66.5801 14.0459C66.3652 14.7764 66.0788 15.3743 65.7207 15.8398C65.3698 16.3053 64.9652 16.6455 64.5068 16.8604C64.0557 17.068 63.5938 17.1719 63.1211 17.1719C62.7272 17.1719 62.3799 17.1325 62.0791 17.0537C61.7855 16.9749 61.5312 16.8783 61.3164 16.7637C61.1016 16.6491 60.9225 16.5345 60.7793 16.4199C60.6361 16.2982 60.5215 16.1979 60.4355 16.1191V21.3613C60.4355 21.4544 60.4212 21.5654 60.3926 21.6943C60.3639 21.8232 60.2923 21.945 60.1777 22.0596C60.0703 22.1813 59.9056 22.2852 59.6836 22.3711C59.4688 22.457 59.1715 22.5 58.792 22.5C58.4124 22.5 58.1117 22.4535 57.8896 22.3604C57.6748 22.2744 57.5101 22.167 57.3955 22.0381C57.2809 21.9163 57.2093 21.791 57.1807 21.6621C57.152 21.5404 57.1377 21.4401 57.1377 21.3613V7.74023ZM60.4355 14.583C60.4355 14.6403 60.4606 14.7406 60.5107 14.8838C60.5609 15.027 60.6396 15.1738 60.7471 15.3242C60.8545 15.4746 60.9906 15.6107 61.1553 15.7324C61.3271 15.847 61.5348 15.9043 61.7783 15.9043C62.0934 15.9043 62.362 15.7861 62.584 15.5498C62.806 15.3063 62.9886 14.9805 63.1318 14.5723C63.2751 14.1569 63.3789 13.6771 63.4434 13.1328C63.5078 12.5814 63.54 11.9941 63.54 11.3711C63.54 10.6048 63.4971 9.95671 63.4111 9.42676C63.3324 8.89681 63.2142 8.4707 63.0566 8.14844C62.8991 7.81901 62.7093 7.58268 62.4873 7.43945C62.2725 7.28906 62.029 7.21387 61.7568 7.21387C61.5993 7.21387 61.4417 7.26042 61.2842 7.35352C61.1266 7.43945 60.9834 7.55046 60.8545 7.68652C60.7327 7.81543 60.6325 7.96224 60.5537 8.12695C60.4749 8.29167 60.4355 8.44922 60.4355 8.59961V14.583ZM78.3428 15.1309C78.3428 15.1953 78.3464 15.2669 78.3535 15.3457C78.3607 15.4173 78.3786 15.4889 78.4072 15.5605C78.4359 15.625 78.4788 15.6787 78.5361 15.7217C78.5934 15.7646 78.6758 15.7861 78.7832 15.7861C78.9193 15.7861 79.041 15.7396 79.1484 15.6465C79.2559 15.5462 79.3561 15.446 79.4492 15.3457L79.707 15.5713C79.5996 15.7217 79.4635 15.89 79.2988 16.0762C79.1413 16.2552 78.9479 16.4271 78.7188 16.5918C78.4896 16.7565 78.2282 16.8926 77.9346 17C77.641 17.1146 77.3079 17.1719 76.9355 17.1719C76.6204 17.1719 76.3447 17.1289 76.1084 17.043C75.8792 16.9642 75.6823 16.8568 75.5176 16.7207C75.36 16.5775 75.2419 16.4128 75.1631 16.2266C75.0843 16.0332 75.0449 15.8291 75.0449 15.6143V15.1309C74.6868 15.5176 74.3109 15.8577 73.917 16.1514C73.7451 16.2803 73.5625 16.4056 73.3691 16.5273C73.1758 16.6491 72.9753 16.7601 72.7676 16.8604C72.5599 16.9535 72.3451 17.0286 72.123 17.0859C71.901 17.1432 71.679 17.1719 71.457 17.1719C71.0273 17.1719 70.6585 17.0967 70.3506 16.9463C70.0498 16.7887 69.8063 16.5846 69.6201 16.334C69.4339 16.0833 69.2979 15.8005 69.2119 15.4854C69.126 15.1702 69.083 14.8551 69.083 14.54V7.89062C69.083 7.82617 69.0794 7.75814 69.0723 7.68652C69.0651 7.60775 69.0472 7.53613 69.0186 7.47168C68.9899 7.40007 68.9469 7.34277 68.8896 7.2998C68.8324 7.25684 68.75 7.23535 68.6426 7.23535C68.5137 7.23535 68.3919 7.28548 68.2773 7.38574C68.1699 7.47884 68.0732 7.57552 67.9873 7.67578L67.7188 7.4502C67.8262 7.2998 67.9587 7.13509 68.1162 6.95605C68.2809 6.76986 68.4779 6.5944 68.707 6.42969C68.9362 6.26497 69.1976 6.12891 69.4912 6.02148C69.792 5.9069 70.125 5.84961 70.4902 5.84961C70.8053 5.84961 71.0811 5.89258 71.3174 5.97852C71.5537 6.05729 71.7507 6.16829 71.9082 6.31152C72.0658 6.44759 72.1839 6.6123 72.2627 6.80566C72.3415 6.99186 72.3809 7.19238 72.3809 7.40723V14.583C72.3809 14.6833 72.3952 14.7871 72.4238 14.8945C72.4596 14.9948 72.5062 15.0879 72.5635 15.1738C72.6279 15.2598 72.7067 15.3314 72.7998 15.3887C72.8929 15.4388 73.0039 15.4639 73.1328 15.4639C73.3405 15.4639 73.5482 15.4102 73.7559 15.3027C73.9635 15.1953 74.1533 15.07 74.3252 14.9268C74.4971 14.7764 74.6439 14.6296 74.7656 14.4863C74.8945 14.3431 74.9876 14.2357 75.0449 14.1641V7.89062C75.0449 7.82617 75.0413 7.75814 75.0342 7.68652C75.027 7.60775 75.0091 7.53613 74.9805 7.47168C74.9518 7.40007 74.9089 7.34277 74.8516 7.2998C74.7943 7.25684 74.7119 7.23535 74.6045 7.23535C74.4756 7.23535 74.3538 7.28548 74.2393 7.38574C74.1318 7.47884 74.0352 7.57552 73.9492 7.67578L73.6807 7.4502C73.7881 7.2998 73.9206 7.13509 74.0781 6.95605C74.2428 6.76986 74.4398 6.5944 74.6689 6.42969C74.8981 6.26497 75.1595 6.12891 75.4531 6.02148C75.7539 5.9069 76.0869 5.84961 76.4521 5.84961C76.7673 5.84961 77.043 5.89258 77.2793 5.97852C77.5156 6.05729 77.7126 6.16829 77.8701 6.31152C78.0277 6.44759 78.1458 6.6123 78.2246 6.80566C78.3034 6.99186 78.3428 7.19238 78.3428 7.40723V15.1309ZM87.2266 11.6504C87.2266 11.0273 87.1943 10.4437 87.1299 9.89941C87.0654 9.34798 86.9616 8.86816 86.8184 8.45996C86.6751 8.0446 86.4925 7.71875 86.2705 7.48242C86.0485 7.23893 85.7799 7.11719 85.4648 7.11719C85.2214 7.11719 85.0137 7.17806 84.8418 7.2998C84.6771 7.41439 84.541 7.54688 84.4336 7.69727C84.3262 7.84766 84.2474 7.99805 84.1973 8.14844C84.1471 8.29167 84.1221 8.38835 84.1221 8.43848V11.6504C84.1221 13.2116 84.251 14.3467 84.5088 15.0557C84.7738 15.7646 85.1605 16.1191 85.6689 16.1191C86.2061 16.1191 86.5999 15.7575 86.8506 15.0342C87.1012 14.3109 87.2266 13.1829 87.2266 11.6504ZM80.8242 2.17578C80.8242 1.9681 80.7741 1.78906 80.6738 1.63867C80.5807 1.48112 80.4196 1.40234 80.1904 1.40234C80.0687 1.40234 79.9613 1.42383 79.8682 1.4668C79.7822 1.5026 79.6891 1.5599 79.5889 1.63867L79.374 1.38086C79.5387 1.24479 79.7214 1.1123 79.9219 0.983398C80.1296 0.847331 80.3516 0.729167 80.5879 0.628906C80.8242 0.528646 81.0785 0.446289 81.3506 0.381836C81.6227 0.317383 81.9092 0.285156 82.21 0.285156C82.6253 0.285156 82.9583 0.349609 83.209 0.478516C83.4668 0.60026 83.6602 0.754232 83.7891 0.94043C83.9251 1.11947 84.0146 1.31641 84.0576 1.53125C84.1006 1.73893 84.1221 1.93229 84.1221 2.11133V6.90234C84.208 6.82357 84.319 6.72689 84.4551 6.6123C84.5911 6.49056 84.763 6.3724 84.9707 6.25781C85.1784 6.14323 85.4255 6.04655 85.7119 5.96777C86.0055 5.889 86.3493 5.84961 86.7432 5.84961C87.2015 5.84961 87.6598 5.95703 88.1182 6.17188C88.5765 6.37956 88.9883 6.70898 89.3535 7.16016C89.7188 7.61133 90.016 8.19141 90.2451 8.90039C90.4743 9.60938 90.5889 10.4616 90.5889 11.457C90.5889 12.2376 90.4814 12.9753 90.2666 13.6699C90.0589 14.3646 89.7474 14.9733 89.332 15.4961C88.9167 16.0117 88.3975 16.4199 87.7744 16.7207C87.1514 17.0215 86.4281 17.1719 85.6045 17.1719C84.7093 17.1719 83.9538 17.0286 83.3379 16.7422C82.7292 16.4486 82.2386 16.0583 81.8662 15.5713C81.4938 15.0771 81.2253 14.5042 81.0605 13.8525C80.903 13.2008 80.8242 12.5133 80.8242 11.79V2.17578ZM95.9922 16.0547C95.9922 16.1478 95.9743 16.2588 95.9385 16.3877C95.9098 16.5166 95.8346 16.6383 95.7129 16.7529C95.5983 16.8675 95.4264 16.9642 95.1973 17.043C94.9753 17.1289 94.6745 17.1719 94.2949 17.1719C93.9154 17.1719 93.6182 17.1253 93.4033 17.0322C93.1885 16.9463 93.0273 16.8424 92.9199 16.7207C92.8197 16.599 92.7552 16.4736 92.7266 16.3447C92.7051 16.2158 92.6943 16.112 92.6943 16.0332V2.17578C92.6943 1.9681 92.6442 1.78906 92.5439 1.63867C92.4508 1.48112 92.2897 1.40234 92.0605 1.40234C91.9388 1.40234 91.8314 1.42383 91.7383 1.4668C91.6523 1.5026 91.5592 1.5599 91.459 1.63867L91.2441 1.38086C91.4089 1.24479 91.5915 1.1123 91.792 0.983398C91.9925 0.847331 92.2109 0.729167 92.4473 0.628906C92.6908 0.528646 92.9486 0.446289 93.2207 0.381836C93.4928 0.317383 93.7793 0.285156 94.0801 0.285156C94.5456 0.285156 94.9072 0.349609 95.165 0.478516C95.4229 0.60026 95.6126 0.754232 95.7344 0.94043C95.8561 1.11947 95.9277 1.31283 95.9492 1.52051C95.9779 1.72103 95.9922 1.90007 95.9922 2.05762V16.0547ZM102.137 16.0332C102.137 16.1263 102.119 16.2409 102.083 16.377C102.054 16.5059 101.979 16.6312 101.857 16.7529C101.743 16.8675 101.575 16.9642 101.353 17.043C101.131 17.1289 100.83 17.1719 100.45 17.1719C100.071 17.1719 99.7734 17.1253 99.5586 17.0322C99.3438 16.9463 99.1826 16.8424 99.0752 16.7207C98.9678 16.599 98.8997 16.4736 98.8711 16.3447C98.8496 16.2158 98.8389 16.112 98.8389 16.0332V7.74023C98.8389 7.53255 98.7887 7.35352 98.6885 7.20312C98.5954 7.04557 98.4342 6.9668 98.2051 6.9668C98.0833 6.9668 97.9795 6.98828 97.8936 7.03125C97.8076 7.07422 97.7145 7.13509 97.6143 7.21387L97.3887 6.94531C97.5534 6.80924 97.736 6.67676 97.9365 6.54785C98.1442 6.41178 98.3662 6.29362 98.6025 6.19336C98.8389 6.0931 99.0931 6.01074 99.3652 5.94629C99.6374 5.88184 99.9238 5.84961 100.225 5.84961C100.69 5.84961 101.052 5.91406 101.31 6.04297C101.567 6.16471 101.757 6.31868 101.879 6.50488C102.001 6.68392 102.072 6.87728 102.094 7.08496C102.122 7.29264 102.137 7.47526 102.137 7.63281V16.0332ZM98.5059 3.40039C98.5059 3.19987 98.5488 3.01009 98.6348 2.83105C98.7279 2.64486 98.8532 2.48372 99.0107 2.34766C99.1755 2.21159 99.3617 2.10417 99.5693 2.02539C99.7842 1.94661 100.017 1.90723 100.268 1.90723C100.511 1.90723 100.737 1.94661 100.944 2.02539C101.159 2.10417 101.345 2.21159 101.503 2.34766C101.66 2.48372 101.782 2.64486 101.868 2.83105C101.961 3.01009 102.008 3.19987 102.008 3.40039C102.008 3.60807 101.961 3.80143 101.868 3.98047C101.782 4.15951 101.66 4.31706 101.503 4.45312C101.345 4.58203 101.159 4.68587 100.944 4.76465C100.737 4.84342 100.511 4.88281 100.268 4.88281C100.017 4.88281 99.7842 4.84342 99.5693 4.76465C99.3617 4.68587 99.1755 4.58203 99.0107 4.45312C98.8532 4.31706 98.7279 4.15951 98.6348 3.98047C98.5488 3.80143 98.5059 3.60807 98.5059 3.40039ZM111.676 9.56641C111.454 9.56641 111.268 9.53418 111.117 9.46973C110.967 9.39811 110.845 9.30501 110.752 9.19043C110.659 9.07585 110.591 8.95052 110.548 8.81445C110.505 8.67122 110.483 8.52441 110.483 8.37402C110.483 8.18066 110.494 7.99447 110.516 7.81543C110.544 7.63639 110.548 7.47526 110.526 7.33203C110.512 7.1888 110.458 7.07422 110.365 6.98828C110.272 6.90234 110.107 6.85938 109.871 6.85938C109.62 6.85938 109.355 6.93099 109.076 7.07422C108.797 7.21745 108.543 7.44303 108.313 7.75098C108.084 8.05892 107.895 8.45638 107.744 8.94336C107.594 9.42318 107.519 10.0033 107.519 10.6836C107.519 11.4355 107.587 12.123 107.723 12.7461C107.866 13.362 108.077 13.8883 108.356 14.3252C108.636 14.762 108.983 15.1022 109.398 15.3457C109.814 15.582 110.301 15.7002 110.859 15.7002C111.11 15.7002 111.346 15.6715 111.568 15.6143C111.798 15.557 112.012 15.4782 112.213 15.3779C112.413 15.2777 112.603 15.1631 112.782 15.0342C112.968 14.8981 113.147 14.7549 113.319 14.6045L113.588 14.8623C113.423 15.0843 113.212 15.3278 112.954 15.5928C112.696 15.8577 112.385 16.1084 112.02 16.3447C111.654 16.5739 111.228 16.7673 110.741 16.9248C110.254 17.0752 109.699 17.1504 109.076 17.1504C108.453 17.1504 107.844 17.0322 107.25 16.7959C106.663 16.5524 106.14 16.2015 105.682 15.7432C105.223 15.2848 104.854 14.7298 104.575 14.0781C104.303 13.4193 104.167 12.6709 104.167 11.833C104.167 11.1813 104.249 10.5833 104.414 10.0391C104.579 9.48763 104.801 8.98991 105.08 8.5459C105.367 8.10189 105.696 7.71159 106.068 7.375C106.448 7.03841 106.845 6.75911 107.261 6.53711C107.676 6.30794 108.099 6.13607 108.528 6.02148C108.965 5.9069 109.384 5.84961 109.785 5.84961C110.315 5.84961 110.777 5.91048 111.171 6.03223C111.565 6.15397 111.891 6.3151 112.148 6.51562C112.413 6.71615 112.61 6.94889 112.739 7.21387C112.868 7.47168 112.933 7.74023 112.933 8.01953C112.933 8.22721 112.904 8.42773 112.847 8.62109C112.797 8.80729 112.718 8.97201 112.61 9.11523C112.51 9.2513 112.381 9.3623 112.224 9.44824C112.066 9.52702 111.883 9.56641 111.676 9.56641Z" fill="black"/>
</svg>
